<?xml version="1.0" encoding="utf-8"?><svg xmlns="http://www.w3.org/2000/svg" xmlns:xlink="http://www.w3.org/1999/xlink"><symbol fill="none" viewBox="0 0 30 30" id="bus"><g clip-path="url(#aclip0_21_994)" fill="#86F2E7"><path d="M29.742 5.311l-1.464-1.465a.879.879 0 00-.622-.257h-1.12A3.813 3.813 0 0022.733.015H7.266a3.813 3.813 0 00-3.801 3.574H2.344a.879.879 0 00-.622.257L.257 5.311A.879.879 0 000 5.933v4.394a.879.879 0 001.758 0v-4.03l.95-.95h.749v10.599c3.639.72 19.549.7 23.086 0v-10.6h.75l.95.95v4.031a.879.879 0 101.757 0V5.933a.879.879 0 00-.258-.622zM4.453 28.164v.356c0 .808.657 1.465 1.465 1.465h2.754c.808 0 1.465-.657 1.465-1.465v-.322c-5.496-.011-5.276.027-5.684-.034zm15.41.034v.322c0 .808.657 1.465 1.465 1.465h2.754c.808 0 1.465-.657 1.465-1.465v-.356c-.407.06-.188.023-5.684.034zM3.457 17.73v3.251l5.54.96a.879.879 0 01.688.6l1.245 3.9h8.14l1.245-3.9a.879.879 0 01.687-.6l5.541-.96v-3.25c-4.233.675-18.85.676-23.086 0zm14.18 4.316h-5.274a.879.879 0 010-1.758h5.274a.879.879 0 010 1.758z"/><path d="M20.916 26.44h4.162c.808 0 1.465-.657 1.465-1.464v-2.21l-4.715.817-.912 2.857zm-11.832 0l-.912-2.857-4.715-.818v2.21c0 .808.657 1.465 1.465 1.465h4.162z"/></g><defs><clipPath id="aclip0_21_994"><path fill="#fff" d="M0 0h30v30H0z"/></clipPath></defs></symbol><symbol fill="none" viewBox="0 0 30 30" id="clock"><path d="M15.938 4.734V2.813h2.812V.937h-7.5v1.875h2.813v1.922a12.187 12.187 0 101.874 0zm0 12.694L11.7 19.744l-.938-1.64 3.3-1.782V9.666h1.876v7.762z" fill="#86F2E7"/><path d="M21.2 4.067l1.15-1.48 5.183 4.022-1.149 1.481L21.2 4.067zM2.462 6.62l5.184-4.024 1.15 1.482L3.61 8.1 2.46 6.618z" fill="#86F2E7"/></symbol><symbol fill="none" viewBox="0 0 14 14" id="courses-arrow"><path d="M13 1L1 13M2.879 1H13v10.121" stroke="#fff" stroke-width="1.5"/></symbol><symbol fill="none" viewBox="0 0 20 20" id="facebook"><path d="M7.61 11.291H5.124c-.391 0-.53-.14-.53-.534-.001-1.01-.002-2.022 0-3.032 0-.389.147-.537.533-.537h2.481V4.986c0-.993.178-1.944.683-2.815C8.809 1.28 9.56.67 10.524.317A5.52 5.52 0 0112.437 0c.82 0 1.64 0 2.459.002.352 0 .508.156.51.51v2.853c-.001.358-.151.502-.511.506-.672.008-1.344.003-2.015.03-.678 0-1.035.331-1.035 1.033-.016.742-.006 1.484-.006 2.253h2.893c.41 0 .55.141.55.553l-.001 3.016c0 .405-.132.535-.544.535h-2.906v8.136c0 .434-.137.572-.565.572h-3.13c-.379 0-.526-.147-.526-.525v-8.183z" fill="#BEBEBE"/></symbol><symbol fill="none" viewBox="0 0 30 30" id="house"><g clip-path="url(#eclip0_21_1013)" fill="#86F2E7"><path d="M0 7.344V30h8.75V5.703L0 7.343zM6.25 27.5H2.5V25h3.75v2.5zm0-5H2.5V20h3.75v2.5zm0-5H2.5V15h3.75v2.5zm0-5H2.5V10h3.75v2.5zm5-12.5v30H30V3.516L11.25 0zm7.5 27.5H15V25h3.75v2.5zm0-5H15V20h3.75v2.5zm0-5H15V15h3.75v2.5zm0-5H15V10h3.75v2.5zm0-5H15V5h3.75v2.5zm7.5 20H22.5V25h3.75v2.5zm0-5H22.5V20h3.75v2.5zm0-5H22.5V15h3.75v2.5zm0-5H22.5V10h3.75v2.5z"/></g><defs><clipPath id="eclip0_21_1013"><path fill="#fff" d="M0 0h30v30H0z"/></clipPath></defs></symbol><symbol fill="none" viewBox="0 0 20 20" id="instagram"><path d="M13.75 0h-7.5A6.25 6.25 0 000 6.25v7.5A6.25 6.25 0 006.25 20h7.5A6.25 6.25 0 0020 13.75v-7.5A6.25 6.25 0 0013.75 0zm4.375 13.75a4.38 4.38 0 01-4.375 4.375h-7.5a4.38 4.38 0 01-4.375-4.375v-7.5A4.38 4.38 0 016.25 1.875h7.5a4.38 4.38 0 014.375 4.375v7.5z" fill="#BEBEBE"/><path d="M10 5a5 5 0 100 10 5 5 0 000-10zm0 8.125A3.13 3.13 0 016.875 10 3.129 3.129 0 0110 6.875 3.129 3.129 0 0113.125 10 3.13 3.13 0 0110 13.125zm5.375-7.834a.666.666 0 100-1.332.666.666 0 000 1.332z" fill="#BEBEBE"/></symbol><symbol fill="none" viewBox="0 0 20 20" id="linkedin"><path d="M18.19 0H1.81C.81 0 0 .81 0 1.81v16.38C0 19.19.81 20 1.81 20h16.38c1 0 1.81-.81 1.81-1.81V1.81c0-1-.81-1.81-1.81-1.81zm-12 17.27c0 .29-.236.526-.527.526h-2.24a.526.526 0 01-.527-.527V7.875c0-.291.235-.527.526-.527h2.241c.291 0 .527.236.527.527v9.394zM4.542 6.461a2.13 2.13 0 110-4.258 2.13 2.13 0 010 4.258zM17.9 17.312a.484.484 0 01-.484.484h-2.405a.484.484 0 01-.484-.484v-4.407c0-.657.193-2.88-1.718-2.88-1.482 0-1.783 1.521-1.843 2.204v5.083a.484.484 0 01-.484.484H8.157a.484.484 0 01-.484-.484v-9.48c0-.267.216-.484.484-.484h2.326c.267 0 .484.217.484.484v.82c.55-.825 1.366-1.462 3.105-1.462 3.851 0 3.829 3.598 3.829 5.575v4.547z" fill="#BEBEBE"/></symbol><symbol fill="none" viewBox="0 0 30 30" id="pin"><path d="M22.148 3.811a11.327 11.327 0 00-9.405-2.341 11.25 11.25 0 00-4.59 19.946 19.064 19.064 0 014.902 5.271l.875 1.455a1.249 1.249 0 002.143 0l.838-1.397a15.902 15.902 0 014.473-5 11.237 11.237 0 00.765-17.94l-.002.006zM15 17.5a5 5 0 110-10 5 5 0 010 10z" fill="#86F2E7"/></symbol><symbol fill="none" viewBox="0 0 21 20" id="plus"><g clip-path="url(#iclip0_21_220)"><path d="M10.142 10h-10m10 10V10v10zm0-10V0v10zm0 0h10-10z" stroke="#3C48D4" stroke-width="2"/></g><defs><clipPath id="iclip0_21_220"><path fill="#fff" transform="translate(.142)" d="M0 0h20v20H0z"/></clipPath></defs></symbol><symbol fill="none" viewBox="0 0 12 12" id="plus-white"><path d="M6 6H0m6 6V6v6zm0-6V0v6zm0 0h6-6z" stroke="#fff" stroke-width="1.5"/></symbol><symbol fill="none" viewBox="0 0 30 30" id="star"><path d="M24.26 8.77l-4.953-.72-2.214-4.488c-.856-1.733-3.33-1.734-4.185 0L10.693 8.05l-4.953.72c-1.913.278-2.677 2.63-1.293 3.98l3.584 3.493-.846 4.933c-.327 1.905 1.674 3.36 3.385 2.46l4.43-2.33 4.43 2.33c1.714.9 3.712-.56 3.386-2.46l-.846-4.933 3.584-3.493c1.383-1.35.62-3.702-1.294-3.98zM7.895 2.763L6.699 1.117A1 1 0 005.08 2.292l1.196 1.646a1 1 0 001.618-1.175zM3.926 17.514a1 1 0 00-1.26-.642l-1.975.642a1 1 0 10.618 1.902l1.975-.642a1 1 0 00.642-1.26zM24.698.896a1 1 0 00-1.396.22l-1.196 1.647a1 1 0 001.618 1.175l1.195-1.646A1 1 0 0024.7.896zm4.611 16.618l-1.975-.642a1 1 0 10-.618 1.902l1.974.642a1 1 0 00.619-1.902zM15 25.266a1 1 0 00-1 1v2.03a1 1 0 002 0v-2.03a1 1 0 00-1-1z" fill="#86F2E7"/></symbol><symbol fill="none" viewBox="0 0 20 20" id="twitter"><g clip-path="url(#lclip0_21_2386)"><path d="M20 3.799a8.549 8.549 0 01-2.363.647 4.077 4.077 0 001.804-2.266 8.192 8.192 0 01-2.6.992A4.099 4.099 0 009.75 5.976c0 .325.027.638.095.935-3.409-.166-6.425-1.8-8.451-4.288A4.128 4.128 0 00.83 4.694c0 1.42.732 2.679 1.821 3.407A4.05 4.05 0 01.8 7.597v.045a4.119 4.119 0 003.285 4.03 4.09 4.09 0 01-1.075.134c-.262 0-.527-.015-.776-.07.531 1.624 2.038 2.818 3.831 2.856a8.238 8.238 0 01-5.084 1.75A7.67 7.67 0 010 16.284a11.543 11.543 0 006.29 1.84c7.545 0 11.67-6.25 11.67-11.668 0-.18-.006-.356-.015-.53A8.179 8.179 0 0020 3.8z" fill="#BEBEBE"/></g><defs><clipPath id="lclip0_21_2386"><path fill="#fff" d="M0 0h20v20H0z"/></clipPath></defs></symbol><symbol fill="none" viewBox="0 0 17 18" id="user"><g clip-path="url(#mclip0_21_2371)"><path d="M15.575 15.43A7.3 7.3 0 008.5 9.95a7.3 7.3 0 00-7.075 5.48 2.006 2.006 0 00.356 1.717c.374.483.963.772 1.575.772h10.289a1.98 1.98 0 001.574-.772 2.005 2.005 0 00.356-1.717zm-1.405.903a.66.66 0 01-.525.258H3.355a.67.67 0 01-.525-.258.66.66 0 01-.118-.572A5.973 5.973 0 018.5 11.278c2.73 0 5.11 1.843 5.789 4.483a.669.669 0 01-.12.572zM8.5 8.887a3.989 3.989 0 003.985-3.984A3.989 3.989 0 008.5.92a3.989 3.989 0 00-3.984 3.984A3.989 3.989 0 008.5 8.887zm0-6.64a2.66 2.66 0 012.656 2.656A2.66 2.66 0 018.5 7.56a2.66 2.66 0 01-2.656-2.656A2.66 2.66 0 018.5 2.247z" fill="#fff"/></g><defs><clipPath id="mclip0_21_2371"><path fill="#fff" transform="translate(0 .919)" d="M0 0h17v17H0z"/></clipPath></defs></symbol><symbol fill="none" viewBox="0 0 17 18" id="user-white"><g clip-path="url(#nclip0_21_2414)"><path d="M15.575 15.43A7.3 7.3 0 008.5 9.95a7.3 7.3 0 00-7.075 5.48 2.006 2.006 0 00.356 1.717c.374.483.963.772 1.575.772h10.289a1.98 1.98 0 001.574-.772 2.005 2.005 0 00.356-1.717zm-1.405.903a.66.66 0 01-.525.258H3.355a.67.67 0 01-.525-.258.66.66 0 01-.118-.572A5.973 5.973 0 018.5 11.278c2.73 0 5.11 1.843 5.789 4.483a.669.669 0 01-.12.572zM8.5 8.887a3.989 3.989 0 003.985-3.984A3.989 3.989 0 008.5.92a3.989 3.989 0 00-3.984 3.984A3.989 3.989 0 008.5 8.887zm0-6.64a2.66 2.66 0 012.656 2.656A2.66 2.66 0 018.5 7.56a2.66 2.66 0 01-2.656-2.656A2.66 2.66 0 018.5 2.247z" fill="#1F2431"/></g><defs><clipPath id="nclip0_21_2414"><path fill="#fff" transform="translate(0 .919)" d="M0 0h17v17H0z"/></clipPath></defs></symbol><symbol fill="none" viewBox="0 0 20 20" id="youtube"><g clip-path="url(#oclip0_21_2393)"><path d="M.435 14.895c.408 1.448 1.657 1.713 1.74 1.764 2.057.56 13.58.562 15.667 0 1.429-.413 1.691-1.68 1.74-1.764.545-2.895.58-6.67-.024-9.954l.024.163c-.408-1.448-1.657-1.713-1.74-1.764-2.029-.55-13.582-.572-15.666 0C.746 3.754.484 5.02.435 5.104c-.583 3.043-.612 6.533 0 9.791zm7.572-1.852V6.965l5.221 3.043-5.221 3.035z" fill="#BEBEBE"/></g><defs><clipPath id="oclip0_21_2393"><path fill="#fff" d="M0 0h20v20H0z"/></clipPath></defs></symbol></svg>