<?xml version="1.0" encoding="utf-8"?><svg xmlns="http://www.w3.org/2000/svg" xmlns:xlink="http://www.w3.org/1999/xlink"><symbol fill="none" viewBox="0 0 20 20" id="facebook"><path d="M7.61 11.291H5.124c-.391 0-.53-.14-.53-.534-.001-1.01-.002-2.022 0-3.032 0-.389.147-.537.533-.537h2.481V4.986c0-.993.178-1.944.683-2.815C8.809 1.28 9.56.67 10.524.317A5.52 5.52 0 0112.437 0c.82 0 1.64 0 2.459.002.352 0 .508.156.51.51v2.853c-.001.358-.151.502-.511.506-.672.008-1.344.003-2.015.03-.678 0-1.035.331-1.035 1.033-.016.742-.006 1.484-.006 2.253h2.893c.41 0 .55.141.55.553l-.001 3.016c0 .405-.132.535-.544.535h-2.906v8.136c0 .434-.137.572-.565.572h-3.13c-.379 0-.526-.147-.526-.525v-8.183z" fill="#BEBEBE"/></symbol><symbol fill="none" viewBox="0 0 20 20" id="instagram"><path d="M13.75 0h-7.5A6.25 6.25 0 000 6.25v7.5A6.25 6.25 0 006.25 20h7.5A6.25 6.25 0 0020 13.75v-7.5A6.25 6.25 0 0013.75 0zm4.375 13.75a4.38 4.38 0 01-4.375 4.375h-7.5a4.38 4.38 0 01-4.375-4.375v-7.5A4.38 4.38 0 016.25 1.875h7.5a4.38 4.38 0 014.375 4.375v7.5z" fill="#BEBEBE"/><path d="M10 5a5 5 0 100 10 5 5 0 000-10zm0 8.125A3.13 3.13 0 016.875 10 3.129 3.129 0 0110 6.875 3.129 3.129 0 0113.125 10 3.13 3.13 0 0110 13.125zm5.375-7.834a.666.666 0 100-1.332.666.666 0 000 1.332z" fill="#BEBEBE"/></symbol><symbol fill="none" viewBox="0 0 20 20" id="linkedin"><path d="M18.19 0H1.81C.81 0 0 .81 0 1.81v16.38C0 19.19.81 20 1.81 20h16.38c1 0 1.81-.81 1.81-1.81V1.81c0-1-.81-1.81-1.81-1.81zm-12 17.27c0 .29-.236.526-.527.526h-2.24a.526.526 0 01-.527-.527V7.875c0-.291.235-.527.526-.527h2.241c.291 0 .527.236.527.527v9.394zM4.542 6.461a2.13 2.13 0 110-4.258 2.13 2.13 0 010 4.258zM17.9 17.312a.484.484 0 01-.484.484h-2.405a.484.484 0 01-.484-.484v-4.407c0-.657.193-2.88-1.718-2.88-1.482 0-1.783 1.521-1.843 2.204v5.083a.484.484 0 01-.484.484H8.157a.484.484 0 01-.484-.484v-9.48c0-.267.216-.484.484-.484h2.326c.267 0 .484.217.484.484v.82c.55-.825 1.366-1.462 3.105-1.462 3.851 0 3.829 3.598 3.829 5.575v4.547z" fill="#BEBEBE"/></symbol><symbol fill="none" viewBox="0 0 21 20" id="plus"><g clip-path="url(#dclip0_21_220)"><path d="M10.142 10h-10m10 10V10v10zm0-10V0v10zm0 0h10-10z" stroke="#3C48D4" stroke-width="2"/></g><defs><clipPath id="dclip0_21_220"><path fill="#fff" transform="translate(.142)" d="M0 0h20v20H0z"/></clipPath></defs></symbol><symbol fill="none" viewBox="0 0 12 12" id="plus-white"><path d="M6 6H0m6 6V6v6zm0-6V0v6zm0 0h6-6z" stroke="#fff" stroke-width="1.5"/></symbol><symbol fill="none" viewBox="0 0 20 20" id="twitter"><g clip-path="url(#fclip0_21_2386)"><path d="M20 3.799a8.549 8.549 0 01-2.363.647 4.077 4.077 0 001.804-2.266 8.192 8.192 0 01-2.6.992A4.099 4.099 0 009.75 5.976c0 .325.027.638.095.935-3.409-.166-6.425-1.8-8.451-4.288A4.128 4.128 0 00.83 4.694c0 1.42.732 2.679 1.821 3.407A4.05 4.05 0 01.8 7.597v.045a4.119 4.119 0 003.285 4.03 4.09 4.09 0 01-1.075.134c-.262 0-.527-.015-.776-.07.531 1.624 2.038 2.818 3.831 2.856a8.238 8.238 0 01-5.084 1.75A7.67 7.67 0 010 16.284a11.543 11.543 0 006.29 1.84c7.545 0 11.67-6.25 11.67-11.668 0-.18-.006-.356-.015-.53A8.179 8.179 0 0020 3.8z" fill="#BEBEBE"/></g><defs><clipPath id="fclip0_21_2386"><path fill="#fff" d="M0 0h20v20H0z"/></clipPath></defs></symbol><symbol fill="none" viewBox="0 0 17 18" id="user"><g clip-path="url(#gclip0_21_2371)"><path d="M15.575 15.43A7.3 7.3 0 008.5 9.95a7.3 7.3 0 00-7.075 5.48 2.006 2.006 0 00.356 1.717c.374.483.963.772 1.575.772h10.289a1.98 1.98 0 001.574-.772 2.005 2.005 0 00.356-1.717zm-1.405.903a.66.66 0 01-.525.258H3.355a.67.67 0 01-.525-.258.66.66 0 01-.118-.572A5.973 5.973 0 018.5 11.278c2.73 0 5.11 1.843 5.789 4.483a.669.669 0 01-.12.572zM8.5 8.887a3.989 3.989 0 003.985-3.984A3.989 3.989 0 008.5.92a3.989 3.989 0 00-3.984 3.984A3.989 3.989 0 008.5 8.887zm0-6.64a2.66 2.66 0 012.656 2.656A2.66 2.66 0 018.5 7.56a2.66 2.66 0 01-2.656-2.656A2.66 2.66 0 018.5 2.247z" fill="#fff"/></g><defs><clipPath id="gclip0_21_2371"><path fill="#fff" transform="translate(0 .919)" d="M0 0h17v17H0z"/></clipPath></defs></symbol><symbol fill="none" viewBox="0 0 17 18" id="user-white"><g clip-path="url(#hclip0_21_2414)"><path d="M15.575 15.43A7.3 7.3 0 008.5 9.95a7.3 7.3 0 00-7.075 5.48 2.006 2.006 0 00.356 1.717c.374.483.963.772 1.575.772h10.289a1.98 1.98 0 001.574-.772 2.005 2.005 0 00.356-1.717zm-1.405.903a.66.66 0 01-.525.258H3.355a.67.67 0 01-.525-.258.66.66 0 01-.118-.572A5.973 5.973 0 018.5 11.278c2.73 0 5.11 1.843 5.789 4.483a.669.669 0 01-.12.572zM8.5 8.887a3.989 3.989 0 003.985-3.984A3.989 3.989 0 008.5.92a3.989 3.989 0 00-3.984 3.984A3.989 3.989 0 008.5 8.887zm0-6.64a2.66 2.66 0 012.656 2.656A2.66 2.66 0 018.5 7.56a2.66 2.66 0 01-2.656-2.656A2.66 2.66 0 018.5 2.247z" fill="#1F2431"/></g><defs><clipPath id="hclip0_21_2414"><path fill="#fff" transform="translate(0 .919)" d="M0 0h17v17H0z"/></clipPath></defs></symbol><symbol fill="none" viewBox="0 0 20 20" id="youtube"><g clip-path="url(#iclip0_21_2393)"><path d="M.435 14.895c.408 1.448 1.657 1.713 1.74 1.764 2.057.56 13.58.562 15.667 0 1.429-.413 1.691-1.68 1.74-1.764.545-2.895.58-6.67-.024-9.954l.024.163c-.408-1.448-1.657-1.713-1.74-1.764-2.029-.55-13.582-.572-15.666 0C.746 3.754.484 5.02.435 5.104c-.583 3.043-.612 6.533 0 9.791zm7.572-1.852V6.965l5.221 3.043-5.221 3.035z" fill="#BEBEBE"/></g><defs><clipPath id="iclip0_21_2393"><path fill="#fff" d="M0 0h20v20H0z"/></clipPath></defs></symbol></svg>