<svg width="70" height="24" viewBox="0 0 70 24" fill="none" xmlns="http://www.w3.org/2000/svg">
<path fill-rule="evenodd" clip-rule="evenodd" d="M29.0549 9.313C29.3546 9.37074 29.6536 9.4862 29.9521 9.60166C31.5634 10.1212 33.4425 10.6987 34.8298 11.7378C36.6489 13.1234 37.3521 14.682 37.3365 16.2408C37.3128 18.4346 35.6946 20.6859 33.4772 22.0714C31.2799 23.457 28.5284 24.0345 26.3121 23.1685C24.7932 22.5912 23.4971 21.3211 22.7905 19.1273C21.9753 16.6449 22.6421 14.2779 24.0791 12.1996C24.6183 11.3913 25.2672 10.6987 25.9819 10.0059C25.0415 9.8327 24.0918 9.65928 23.1288 9.48609C19.9761 9.02424 16.6623 8.90866 13.4842 9.08185C9.28022 9.25505 5.25864 10.1214 1.37332 11.7378C1.01423 11.8533 0.603185 11.68 0.455393 11.3336C0.308178 10.9872 0.479077 10.5833 0.838166 10.4101C4.87647 8.73592 9.05621 7.81176 13.4253 7.63857C16.6958 7.52311 20.1054 7.58129 23.3499 8.10087C24.6939 8.3318 26.0131 8.56261 27.3172 8.85127C29.0284 7.52345 30.9295 6.48417 32.5459 5.84912C43.3596 1.80793 57.9212 7.06126 67.7199 12.2571C68.0629 12.4303 68.1933 12.8347 68.0121 13.1811C67.8302 13.5275 67.4047 13.643 67.0618 13.4698C57.5777 8.44715 43.5086 3.2511 33.0424 7.17683C31.8116 7.63868 30.3989 8.3893 29.0549 9.313ZM27.6555 10.4101C28.2733 10.5256 28.8869 10.6984 29.4989 10.9294C30.9757 11.449 32.7111 11.9107 33.9817 12.8344C35.3552 13.8736 35.9423 15.0286 35.9307 16.1833C35.9117 18.0307 34.5204 19.7624 32.7267 20.8593C30.9133 22.0139 28.6537 22.5913 26.8242 21.8408C25.6465 21.379 24.6749 20.3973 24.127 18.7231C23.4556 16.6448 24.0514 14.6822 25.2354 13.008C25.8941 12.0266 26.7336 11.1606 27.6555 10.4101Z" fill="white"/>
<path fill-rule="evenodd" clip-rule="evenodd" d="M67.8269 12.9488C67.6231 12.6602 67.3183 12.3715 67.0129 12.0829C66.4258 11.5056 65.8034 10.9859 65.4755 10.524C63.4561 7.75291 61.0689 4.4046 60.0101 1.11391C59.8906 0.767526 60.0932 0.363406 60.4627 0.247944C60.8316 0.132481 61.2282 0.305562 61.3477 0.709682C62.3638 3.82718 64.6759 7.00274 66.614 9.71612C66.9684 10.178 67.7189 10.8127 68.3205 11.39C68.8309 11.9096 69.2379 12.4293 69.3857 12.9488C69.4896 13.2375 69.3741 13.7571 68.7241 14.1035C67.8027 14.5653 65.244 14.9698 64.9963 15.0275C62.4873 15.6048 60.2797 16.182 58.6955 18.3758C58.4675 18.6645 58.027 18.7221 57.7135 18.5489C57.4 18.318 57.3308 17.856 57.5594 17.5674C59.3652 15.0849 61.8379 14.2768 64.6979 13.6417C64.8803 13.6417 66.4096 13.4108 67.4724 13.0644C67.5873 13.0067 67.7137 13.0066 67.8269 12.9488Z" fill="white"/>
</svg>
