<svg width="18" height="18" viewBox="0 0 18 18" fill="none" xmlns="http://www.w3.org/2000/svg">
<path d="M9.56251 2.84063V1.6875H11.25V0.5625H6.75001V1.6875H8.43751V2.84063C6.55244 2.98606 4.79698 3.85596 3.53947 5.2678C2.28196 6.67963 1.62015 8.52365 1.69292 10.4129C1.7657 12.3022 2.56739 14.0898 3.92977 15.4007C5.29216 16.7117 7.10934 17.444 9.00001 17.444C10.8907 17.444 12.7079 16.7117 14.0702 15.4007C15.4326 14.0898 16.2343 12.3022 16.3071 10.4129C16.3799 8.52365 15.7181 6.67963 14.4605 5.2678C13.203 3.85596 11.4476 2.98606 9.56251 2.84063ZM9.56251 10.4569L7.02001 11.8462L6.45751 10.8619L8.43751 9.79313V5.79938H9.56251V10.4569Z" fill="white"/>
<path d="M12.72 2.44049L13.4096 1.55174L16.5202 3.96543L15.8306 4.85418L12.72 2.44049Z" fill="white"/>
<path d="M1.47729 3.97156L4.58792 1.55787L5.27754 2.44662L2.16692 4.86031L1.47729 3.97156Z" fill="white"/>
</svg>
