<svg width="20" height="20" viewBox="0 0 20 20" fill="none" xmlns="http://www.w3.org/2000/svg">
<path d="M17.0707 2.92929C15.181 1.03956 12.6726 0 10 0C7.32744 0 4.81902 1.03956 2.92929 2.92929C1.03956 4.81902 0 7.32744 0 10C0 12.6726 1.03956 15.181 2.92929 17.0707C4.81902 18.9604 7.32744 20 10 20C12.6726 20 15.181 18.9604 17.0707 17.0707C18.9604 15.181 20 12.6726 20 10C20 7.32744 18.9604 4.81902 17.0707 2.92929ZM16.2668 16.2668C14.5918 17.9419 12.3653 18.8636 10 18.8636C7.63468 18.8636 5.40825 17.9419 3.73316 16.2668C0.277778 12.8114 0.277778 7.18855 3.73316 3.73316C5.40825 2.05808 7.63468 1.13636 10 1.13636C12.3653 1.13636 14.5918 2.05808 16.2668 3.73316C19.7222 7.18855 19.7222 12.8114 16.2668 16.2668Z" fill="black"/>
<path d="M14.4066 5.59332C14.1835 5.37026 13.8258 5.37026 13.6027 5.59332L10 9.19602L6.39732 5.59332C6.17425 5.37026 5.81651 5.37026 5.59345 5.59332C5.37038 5.81639 5.37038 6.17413 5.59345 6.3972L9.19614 9.99989L5.59345 13.6026C5.37038 13.8256 5.37038 14.1834 5.59345 14.4065C5.70287 14.5159 5.85018 14.5748 5.99328 14.5748C6.13637 14.5748 6.28368 14.5201 6.39311 14.4065L9.9958 10.8038L13.5985 14.4065C13.7079 14.5159 13.8552 14.5748 13.9983 14.5748C14.1456 14.5748 14.2887 14.5201 14.3982 14.4065C14.6212 14.1834 14.6212 13.8256 14.3982 13.6026L10.8039 9.99989L14.4066 6.3972C14.6296 6.17413 14.6296 5.81639 14.4066 5.59332Z" fill="black"/>
</svg>
