<svg width="30" height="30" viewBox="0 0 30 30" fill="none" xmlns="http://www.w3.org/2000/svg">
<g clip-path="url(#clip0_1950_4399)">
<path d="M16.2875 2.33741L2.55 0.249915C1.9125 0.149915 1.2625 0.324915 0.775 0.737415C0.2875 1.16241 0 1.77491 0 2.41241V28.7499C0 29.4374 0.5625 29.9999 1.25 29.9999H5.3125V23.4374C5.3125 22.2249 6.2875 21.2499 7.5 21.2499H10.625C11.8375 21.2499 12.8125 22.2249 12.8125 23.4374V29.9999H18.125V4.49992C18.125 3.42492 17.35 2.51241 16.2875 2.33741ZM6.875 18.4374H5C4.4825 18.4374 4.0625 18.0174 4.0625 17.4999C4.0625 16.9824 4.4825 16.5624 5 16.5624H6.875C7.3925 16.5624 7.8125 16.9824 7.8125 17.4999C7.8125 18.0174 7.3925 18.4374 6.875 18.4374ZM6.875 14.6874H5C4.4825 14.6874 4.0625 14.2674 4.0625 13.7499C4.0625 13.2324 4.4825 12.8124 5 12.8124H6.875C7.3925 12.8124 7.8125 13.2324 7.8125 13.7499C7.8125 14.2674 7.3925 14.6874 6.875 14.6874ZM6.875 10.9374H5C4.4825 10.9374 4.0625 10.5174 4.0625 9.99992C4.0625 9.48242 4.4825 9.06242 5 9.06242H6.875C7.3925 9.06242 7.8125 9.48242 7.8125 9.99992C7.8125 10.5174 7.3925 10.9374 6.875 10.9374ZM6.875 7.18742H5C4.4825 7.18742 4.0625 6.76742 4.0625 6.24992C4.0625 5.73242 4.4825 5.31242 5 5.31242H6.875C7.3925 5.31242 7.8125 5.73242 7.8125 6.24992C7.8125 6.76742 7.3925 7.18742 6.875 7.18742ZM13.125 18.4374H11.25C10.7325 18.4374 10.3125 18.0174 10.3125 17.4999C10.3125 16.9824 10.7325 16.5624 11.25 16.5624H13.125C13.6425 16.5624 14.0625 16.9824 14.0625 17.4999C14.0625 18.0174 13.6425 18.4374 13.125 18.4374ZM13.125 14.6874H11.25C10.7325 14.6874 10.3125 14.2674 10.3125 13.7499C10.3125 13.2324 10.7325 12.8124 11.25 12.8124H13.125C13.6425 12.8124 14.0625 13.2324 14.0625 13.7499C14.0625 14.2674 13.6425 14.6874 13.125 14.6874ZM13.125 10.9374H11.25C10.7325 10.9374 10.3125 10.5174 10.3125 9.99992C10.3125 9.48242 10.7325 9.06242 11.25 9.06242H13.125C13.6425 9.06242 14.0625 9.48242 14.0625 9.99992C14.0625 10.5174 13.6425 10.9374 13.125 10.9374ZM13.125 7.18742H11.25C10.7325 7.18742 10.3125 6.76742 10.3125 6.24992C10.3125 5.73242 10.7325 5.31242 11.25 5.31242H13.125C13.6425 5.31242 14.0625 5.73242 14.0625 6.24992C14.0625 6.76742 13.6425 7.18742 13.125 7.18742Z" fill="#86F2E7"/>
<path d="M28.275 13.5526L19.375 11.6888V30.0001H27.8125C29.0188 30.0001 30 29.0189 30 27.8126V15.6901C30 14.6576 29.2963 13.7788 28.275 13.5526ZM25.3125 26.2501H23.4375C22.92 26.2501 22.5 25.8301 22.5 25.3126C22.5 24.7951 22.92 24.3751 23.4375 24.3751H25.3125C25.83 24.3751 26.25 24.7951 26.25 25.3126C26.25 25.8301 25.83 26.2501 25.3125 26.2501ZM25.3125 22.5001H23.4375C22.92 22.5001 22.5 22.0801 22.5 21.5626C22.5 21.0451 22.92 20.6251 23.4375 20.6251H25.3125C25.83 20.6251 26.25 21.0451 26.25 21.5626C26.25 22.0801 25.83 22.5001 25.3125 22.5001ZM25.3125 18.7501H23.4375C22.92 18.7501 22.5 18.3301 22.5 17.8126C22.5 17.2951 22.92 16.8751 23.4375 16.8751H25.3125C25.83 16.8751 26.25 17.2951 26.25 17.8126C26.25 18.3301 25.83 18.7501 25.3125 18.7501Z" fill="#86F2E7"/>
</g>
<defs>
<clipPath id="clip0_1950_4399">
<rect width="30" height="30" fill="white"/>
</clipPath>
</defs>
</svg>
