<svg width="20" height="20" viewBox="0 0 20 20" fill="none" xmlns="http://www.w3.org/2000/svg">
<g clip-path="url(#clip0_21_1439)">
<path d="M10.765 13.8253L7.70487 16.8855C7.70487 16.8855 7.70487 16.8855 7.7048 16.8855C7.7048 16.8855 7.7048 16.8856 7.70473 16.8856C6.43929 18.1511 4.38014 18.1512 3.11455 16.8856C2.50145 16.2725 2.16389 15.4574 2.16389 14.5904C2.16389 13.7236 2.50145 12.9086 3.11434 12.2955C3.11441 12.2954 3.11448 12.2954 3.11455 12.2953L6.17465 9.23511C6.59711 8.81258 6.59711 8.12749 6.17457 7.70503C5.75211 7.28257 5.06703 7.28257 4.64449 7.70503L1.5844 10.7652C1.58418 10.7654 1.58396 10.7657 1.58375 10.7659C0.562466 11.7876 0 13.1458 0 14.5904C0 16.0354 0.562682 17.3939 1.58447 18.4157C2.63915 19.4703 4.02439 19.9976 5.40971 19.9976C6.79503 19.9976 8.18035 19.4703 9.23489 18.4157V18.4156C9.23496 18.4156 9.23496 18.4155 9.23496 18.4155L12.2951 15.3554C12.7175 14.9329 12.7175 14.2478 12.295 13.8253C11.8726 13.4028 11.1876 13.4028 10.765 13.8253Z" fill="#0C1934"/>
<path d="M20.0008 5.40981C20.0008 3.96484 19.4381 2.60635 18.4163 1.58457C16.307 -0.524644 12.875 -0.524572 10.7659 1.58457C10.7658 1.58471 10.7657 1.58478 10.7656 1.58493L7.70557 4.64488C7.28304 5.06734 7.28304 5.7525 7.70557 6.17496C7.91691 6.3863 8.19375 6.4919 8.47065 6.4919C8.74748 6.4919 9.02446 6.38623 9.23566 6.17496L12.2957 3.11501C12.2958 3.11487 12.2959 3.1148 12.296 3.11465C13.5615 1.84921 15.6206 1.84914 16.8862 3.11465C17.4992 3.72775 17.837 4.54289 17.837 5.40981C17.837 6.27667 17.4994 7.09166 16.8864 7.70476C16.8864 7.70483 16.8863 7.7049 16.8862 7.70497L13.8261 10.7651C13.4037 11.1876 13.4037 11.8727 13.8262 12.2952C14.0375 12.5065 14.3144 12.6122 14.5912 12.6122C14.8681 12.6122 15.145 12.5065 15.3563 12.2952L18.4164 9.23506C18.4166 9.23484 18.4168 9.23455 18.417 9.23434C19.4383 8.21269 20.0008 6.85442 20.0008 5.40981Z" fill="#0C1934"/>
<path d="M6.1753 13.8253C6.38657 14.0366 6.66347 14.1422 6.9403 14.1422C7.21721 14.1422 7.49411 14.0366 7.70538 13.8253L13.8257 7.70496C14.2482 7.2825 14.2482 6.59741 13.8257 6.17488C13.4032 5.75242 12.7182 5.75242 12.2956 6.17488L6.1753 12.2951C5.75276 12.7178 5.75276 13.4028 6.1753 13.8253Z" fill="#0C1934"/>
</g>
<defs>
<clipPath id="clip0_21_1439">
<rect width="20" height="20" fill="white"/>
</clipPath>
</defs>
</svg>
