<svg width="111" height="23" viewBox="0 0 111 23" fill="none" xmlns="http://www.w3.org/2000/svg">
<path d="M17.8478 22H13.8858L4.91471 8.44428V22H0.952703V2.21827H4.91471L13.8858 15.8023V2.21827H17.8478V22ZM25.7252 5.44447V10.397H32.3757V13.5383H25.7252V18.7738H33.2247V22H21.7632V2.21827H33.2247V5.44447H25.7252ZM40.7306 2.24657V14.4722C40.7306 15.8117 41.0797 16.84 41.7777 17.5569C42.4758 18.255 43.4569 18.604 44.7209 18.604C46.0039 18.604 46.9944 18.255 47.6924 17.5569C48.3905 16.84 48.7395 15.8117 48.7395 14.4722V2.24657H52.7299V14.4439C52.7299 16.123 52.362 17.5475 51.6261 18.7172C50.9092 19.8681 49.9376 20.7359 48.7112 21.3208C47.5038 21.9057 46.1548 22.1981 44.6643 22.1981C43.1927 22.1981 41.8532 21.9057 40.6457 21.3208C39.4571 20.7359 38.5138 19.8681 37.8157 18.7172C37.1177 17.5475 36.7686 16.123 36.7686 14.4439V2.24657H40.7306ZM68.7552 2.24657V5.44447H60.5199V10.5102H66.8308V13.6515H60.5199V22H56.5579V2.24657H68.7552ZM72.357 17.5286C74.1682 16.0193 75.6115 14.7646 76.687 13.7647C77.7624 12.7459 78.6585 11.6893 79.3755 10.5951C80.0924 9.50081 80.4509 8.42541 80.4509 7.36888C80.4509 6.40667 80.2245 5.65201 79.7717 5.10487C79.3189 4.55774 78.6208 4.28417 77.6775 4.28417C76.7341 4.28417 76.0077 4.6049 75.4983 5.24637C74.9889 5.86897 74.7248 6.72741 74.7059 7.82168H70.8571C70.9326 5.55767 71.6024 3.8408 72.8664 2.67107C74.1494 1.50133 75.7719 0.916463 77.7341 0.916463C79.8849 0.916463 81.5357 1.4919 82.6866 2.64277C83.8374 3.77477 84.4129 5.27467 84.4129 7.14247C84.4129 8.61408 84.0167 10.0196 83.2243 11.3592C82.4319 12.6987 81.5263 13.8685 80.5075 14.8684C79.4887 15.8495 78.1586 17.0381 76.5172 18.4342H84.8657V21.717H70.8854V18.7738L72.357 17.5286ZM87.1925 17.9814V14.8684L96.4466 1.62397H101.059V14.5288H103.55V17.9814H101.059V22H97.0975V17.9814H87.1925ZM97.3522 5.86897L91.5507 14.5288H97.3522V5.86897Z" fill="white"/>
<path d="M108.28 22.1981C107.563 22.1981 106.969 21.9811 106.497 21.5472C106.044 21.0944 105.818 20.5378 105.818 19.8775C105.818 19.2172 106.044 18.67 106.497 18.2361C106.969 17.7833 107.563 17.5569 108.28 17.5569C108.978 17.5569 109.553 17.7833 110.006 18.2361C110.459 18.67 110.685 19.2172 110.685 19.8775C110.685 20.5378 110.459 21.0944 110.006 21.5472C109.553 21.9811 108.978 22.1981 108.28 22.1981Z" fill="#86F2E7"/>
</svg>
