<svg width="12" height="12" viewBox="0 0 12 12" fill="none" xmlns="http://www.w3.org/2000/svg">
<path d="M6.99809 6.00001L11.793 1.20508C12.069 0.929085 12.069 0.482987 11.793 0.206995C11.517 -0.0689982 11.0709 -0.0689982 10.7949 0.206995L6.00001 5.00192L1.20507 0.206995C0.929082 -0.0689982 0.482986 -0.0689982 0.206994 0.206995C-0.068998 0.482987 -0.068998 0.929085 0.206994 1.20508L5.00191 6.00001L0.206994 10.7949C-0.068998 11.0709 -0.068998 11.517 0.206994 11.793C0.344638 11.9307 0.525336 11.9998 0.706034 11.9998C0.886732 11.9998 1.06743 11.9306 1.20507 11.793L5.99999 6.99809L10.7949 11.793C10.9325 11.9307 11.1132 11.9998 11.2939 11.9998C11.4746 11.9998 11.6553 11.9306 11.793 11.793C12.069 11.517 12.069 11.0709 11.793 10.7949L6.99809 6.00001Z" fill="#1F2431"/>
</svg>
