<svg width="25" height="25" viewBox="0 0 25 25" fill="none" xmlns="http://www.w3.org/2000/svg">
<g clip-path="url(#clip0_103_221)">
<path d="M24.7323 18.9594C23.8017 17.2001 20.57 15.2925 20.4277 15.209C20.0124 14.9727 19.5791 14.8475 19.1736 14.8475C18.5706 14.8475 18.077 15.1237 17.7781 15.6261C17.3053 16.1916 16.7191 16.8525 16.5768 16.9549C15.4756 17.702 14.6136 17.6172 13.6598 16.6634L8.33645 11.3396C7.38867 10.3918 7.30154 9.51912 8.04354 8.42396C8.14736 8.28075 8.80825 7.69401 9.37368 7.22082C9.73425 7.00624 9.98174 6.68737 10.0902 6.29621C10.2343 5.77575 10.1282 5.16352 9.78801 4.56704C9.70783 4.42986 7.7993 1.19768 6.04093 0.267516C5.7128 0.0937184 5.34296 0.00195312 4.97219 0.00195312C4.36135 0.00195312 3.78666 0.240172 3.35471 0.671654L2.17845 1.84745C0.318117 3.70732 -0.355291 5.8156 0.175835 8.11344C0.618903 10.0285 1.9101 12.0663 4.01422 14.1699L10.8294 20.9851C13.4925 23.6482 16.0313 24.9987 18.3755 24.9987C18.3755 24.9987 18.3755 24.9987 18.3759 24.9987C20.1 24.9987 21.7073 24.266 23.1519 22.8214L24.3277 21.6456C25.0424 20.9314 25.2046 19.8515 24.7323 18.9594Z" fill="#86F2E7"/>
</g>
<defs>
<clipPath id="clip0_103_221">
<rect width="25" height="25" fill="white"/>
</clipPath>
</defs>
</svg>
