<svg width="25" height="25" viewBox="0 0 25 25" fill="none" xmlns="http://www.w3.org/2000/svg">
<path d="M24.1898 3.46338H0.810223C0.362774 3.46338 0 3.82621 0 4.27371V20.7262C0 21.1737 0.362774 21.5365 0.810223 21.5365H24.1897C24.6372 21.5365 25 21.1738 25 20.7262V4.27371C25 3.82621 24.6373 3.46338 24.1898 3.46338ZM22.1226 17.3659C22.4657 17.6637 22.5024 18.1832 22.2047 18.5263C21.9069 18.8693 21.3875 18.9063 21.0442 18.6084C20.8316 18.4239 15.4678 13.7685 15.2611 13.5891L13.0392 15.5176C12.8845 15.6518 12.6923 15.719 12.5 15.719C12.3077 15.719 12.1155 15.6518 11.9608 15.5176L9.73891 13.5891C9.53216 13.7686 4.16837 18.4239 3.9558 18.6084C3.61266 18.9062 3.0931 18.8695 2.79531 18.5263C2.49752 18.1832 2.53426 17.6637 2.87741 17.3659L8.48393 12.4999L2.87741 7.634C2.53432 7.33621 2.49758 6.8167 2.79531 6.47356C3.09315 6.13047 3.61266 6.09362 3.9558 6.39151C4.23385 6.63281 11.9952 13.369 12.5 13.8071C12.9372 13.4277 20.7429 6.65305 21.0442 6.39151C21.3873 6.09367 21.9069 6.13036 22.2047 6.47356C22.5025 6.8167 22.4657 7.33626 22.1226 7.634L16.5161 12.4999L22.1226 17.3659Z" fill="#86F2E7"/>
</svg>
