<svg width="46" height="46" viewBox="0 0 46 46" fill="none" xmlns="http://www.w3.org/2000/svg">
<circle cx="23" cy="23" r="23" fill="#EB8D59"/>
<path d="M34.5781 22.5229L33.8664 21.8111C33.5739 21.5186 33.3976 20.8621 33.5048 20.4616L33.7648 19.489C33.9094 18.9519 33.8347 18.3889 33.5544 17.9054C33.2749 17.4212 32.8256 17.0759 32.2877 16.9321L31.3159 16.6712C30.9162 16.564 30.4352 16.083 30.3271 15.6841L30.0671 14.7115C29.7763 13.626 28.6054 12.9419 27.5094 13.2344L26.5376 13.4952C26.1647 13.5943 25.4684 13.4131 25.1889 13.1336L24.4763 12.4219C23.689 11.6346 22.3102 11.6346 21.5229 12.4219L20.8103 13.1344C20.5308 13.4139 19.8345 13.5951 19.4607 13.496L18.4898 13.2352C17.3938 12.9419 16.2229 13.626 15.9321 14.7123L15.6721 15.6832C15.5648 16.0846 15.0838 16.5648 14.6841 16.6721L13.7115 16.9329C13.1736 17.0767 12.7235 17.4228 12.444 17.9071C12.1645 18.3913 12.0906 18.9536 12.2352 19.489L12.4944 20.4624C12.6016 20.8629 12.4261 21.5186 12.1336 21.8119L11.4219 22.5237C11.0294 22.9169 10.8125 23.4418 10.8125 24C10.8125 24.5582 11.0294 25.0831 11.4227 25.4763L12.1344 26.1881C12.4269 26.4806 12.6033 27.1371 12.496 27.5376L12.236 28.5102C12.0914 29.0472 12.1661 29.6103 12.4464 30.0938C12.7259 30.5772 13.1753 30.9233 13.7131 31.0671L14.6841 31.3271C15.0846 31.4344 15.5656 31.9154 15.6737 32.3143L15.9329 33.2869C16.2238 34.3724 17.3986 35.0541 18.4898 34.7632L19.4624 34.5032C19.8361 34.4041 20.5324 34.5852 20.8119 34.8647L21.5237 35.5757C21.9169 35.9706 22.4418 36.1875 23.0008 36.1875C23.5598 36.1875 24.0847 35.9706 24.4771 35.5781L25.1897 34.8664C25.47 34.5869 26.1688 34.4073 26.5393 34.5048L27.5102 34.7648C27.6865 34.8119 27.8669 34.8355 28.0481 34.8355H28.0489C28.993 34.8355 29.8242 34.1993 30.0679 33.2877L30.3271 32.3176C30.4352 31.9162 30.9162 31.436 31.3159 31.3279L32.2877 31.0679C32.8256 30.9241 33.2757 30.5772 33.5552 30.0929C33.8347 29.6087 33.9086 29.0464 33.764 28.511L33.5048 27.5376C33.3976 27.1371 33.5731 26.4814 33.8656 26.1881L34.5773 25.4763C34.9706 25.0831 35.1875 24.5582 35.1875 24C35.1883 23.4402 34.9714 22.9161 34.5781 22.5229ZM17.3125 20.75C17.3125 19.4061 18.4061 18.3125 19.75 18.3125C21.0939 18.3125 22.1875 19.4061 22.1875 20.75C22.1875 22.0939 21.0939 23.1875 19.75 23.1875C18.4061 23.1875 17.3125 22.0939 17.3125 20.75ZM20.3244 27.8244C20.166 27.9829 19.958 28.0625 19.75 28.0625C19.542 28.0625 19.334 27.9829 19.1756 27.8244C18.8579 27.5068 18.8579 26.9932 19.1756 26.6756L25.6756 20.1756C25.9932 19.8579 26.5068 19.8579 26.8244 20.1756C27.1421 20.4932 27.1421 21.0068 26.8244 21.3244L20.3244 27.8244ZM26.25 29.6875C24.9061 29.6875 23.8125 28.5939 23.8125 27.25C23.8125 25.9061 24.9061 24.8125 26.25 24.8125C27.5939 24.8125 28.6875 25.9061 28.6875 27.25C28.6875 28.5939 27.5939 29.6875 26.25 29.6875Z" fill="white"/>
<path d="M26.25 28.0625C26.6987 28.0625 27.0625 27.6987 27.0625 27.25C27.0625 26.8013 26.6987 26.4375 26.25 26.4375C25.8013 26.4375 25.4375 26.8013 25.4375 27.25C25.4375 27.6987 25.8013 28.0625 26.25 28.0625Z" fill="white"/>
<path d="M19.75 21.5625C20.1987 21.5625 20.5625 21.1987 20.5625 20.75C20.5625 20.3013 20.1987 19.9375 19.75 19.9375C19.3013 19.9375 18.9375 20.3013 18.9375 20.75C18.9375 21.1987 19.3013 21.5625 19.75 21.5625Z" fill="white"/>
</svg>
