<svg width="30" height="30" viewBox="0 0 30 30" fill="none" xmlns="http://www.w3.org/2000/svg">
<path d="M10.0535 23.487L7.69328 22.3068L6.51316 19.9466C6.46989 19.874 6.4085 19.8138 6.335 19.772C6.26149 19.7303 6.1784 19.7083 6.09386 19.7083C6.00932 19.7083 5.92623 19.7303 5.85273 19.772C5.77922 19.8138 5.71783 19.874 5.67456 19.9466L4.49444 22.3068L2.13419 23.487C2.05631 23.5259 1.99081 23.5857 1.94503 23.6598C1.89925 23.7338 1.875 23.8192 1.875 23.9063C1.875 23.9933 1.89925 24.0787 1.94503 24.1527C1.99081 24.2268 2.05631 24.2866 2.13419 24.3256L4.49444 25.5057L5.67456 27.8659C5.71349 27.9438 5.77333 28.0093 5.84739 28.0551C5.92145 28.1009 6.0068 28.1251 6.09386 28.1251C6.18093 28.1251 6.26627 28.1009 6.34033 28.0551C6.41439 28.0093 6.47423 27.9438 6.51316 27.8659L7.69328 25.5057L10.0535 24.3256C10.1314 24.2866 10.1969 24.2268 10.2427 24.1527C10.2885 24.0787 10.3127 23.9933 10.3127 23.9063C10.3127 23.8192 10.2885 23.7338 10.2427 23.6598C10.1969 23.5857 10.1314 23.5259 10.0535 23.487Z" fill="#86F2E7"/>
<path d="M27.866 19.737L24.2556 17.932L22.4507 14.3216C22.4074 14.249 22.346 14.1888 22.2725 14.147C22.199 14.1053 22.1159 14.0833 22.0314 14.0833C21.9468 14.0833 21.8637 14.1053 21.7902 14.147C21.7167 14.1888 21.6553 14.249 21.6121 14.3216L19.8071 17.932L16.1967 19.737C16.1188 19.7759 16.0533 19.8357 16.0075 19.9098C15.9617 19.9838 15.9375 20.0692 15.9375 20.1563C15.9375 20.2433 15.9617 20.3287 16.0075 20.4027C16.0533 20.4768 16.1188 20.5366 16.1967 20.5756L19.8071 22.3805L21.6121 25.9909C21.651 26.0688 21.7108 26.1343 21.7849 26.1801C21.8589 26.2259 21.9443 26.2501 22.0314 26.2501C22.1184 26.2501 22.2038 26.2259 22.2778 26.1801C22.3519 26.1343 22.4117 26.0688 22.4507 25.9909L24.2556 22.3805L27.866 20.5756C27.9439 20.5366 28.0094 20.4768 28.0552 20.4027C28.101 20.3287 28.1252 20.2433 28.1252 20.1563C28.1252 20.0692 28.101 19.9838 28.0552 19.9098C28.0094 19.8357 27.9439 19.7759 27.866 19.737Z" fill="#86F2E7"/>
<path d="M19.4285 10.362L13.9431 7.61949L11.2007 2.13409C11.1574 2.06146 11.096 2.00131 11.0225 1.95954C10.949 1.91777 10.8659 1.89581 10.7814 1.89581C10.6968 1.89581 10.6137 1.91777 10.5402 1.95954C10.4667 2.00131 10.4053 2.06146 10.3621 2.13409L7.61959 7.61949L2.13419 10.362C2.05631 10.4009 1.99081 10.4607 1.94503 10.5348C1.89925 10.6088 1.875 10.6942 1.875 10.7813C1.875 10.8683 1.89925 10.9537 1.94503 11.0277C1.99081 11.1018 2.05631 11.1616 2.13419 11.2005L7.61959 13.943L10.3621 19.4284C10.401 19.5063 10.4608 19.5718 10.5349 19.6176C10.609 19.6634 10.6943 19.6876 10.7814 19.6876C10.8684 19.6876 10.9538 19.6634 11.0278 19.6176C11.1019 19.5718 11.1617 19.5063 11.2007 19.4284L13.9431 13.943L19.4285 11.2005C19.5064 11.1616 19.5719 11.1018 19.6177 11.0277C19.6635 10.9537 19.6877 10.8683 19.6877 10.7813C19.6877 10.6942 19.6635 10.6088 19.6177 10.5348C19.5719 10.4607 19.5064 10.4009 19.4285 10.362Z" fill="#86F2E7"/>
</svg>
