<svg width="30" height="30" viewBox="0 0 30 30" fill="none" xmlns="http://www.w3.org/2000/svg">
<path d="M8.90379 2.01415C8.4408 1.95648 7.94557 2.15186 7.66844 2.62695L2.59031 11.3306C2.35433 11.7342 2.3644 12.2369 2.61473 12.6318C2.84545 12.9948 3.24669 13.2128 3.67674 13.2104L13.7549 13.1665C14.8567 13.1623 15.4149 11.8364 14.6484 11.0449L13.5353 9.89488C13.2952 9.64685 13.3538 9.32538 13.6778 9.20649C14.4773 8.91305 15.3411 8.74999 16.25 8.74999C20.4217 8.74999 23.75 12.0782 23.75 16.25C23.75 20.4217 20.4217 23.75 16.25 23.75C13.4981 23.75 11.1254 22.2859 9.81444 20.1025C9.10305 18.9195 7.56747 18.537 6.38426 19.248C5.20039 19.9586 4.81672 21.4944 5.52733 22.6782C7.71263 26.3177 11.7156 28.75 16.25 28.75C23.1239 28.75 28.75 23.1239 28.75 16.25C28.75 9.37604 23.1239 3.74999 16.25 3.74999C14.4356 3.74999 12.709 4.14702 11.147 4.84943C10.8322 4.99098 10.5065 4.8506 10.4115 4.51875L9.95116 2.91015C9.79906 2.38159 9.36679 2.07183 8.90379 2.01415V2.01415Z" fill="#86F2E7"/>
</svg>
