<svg width="30" height="30" viewBox="0 0 30 30" fill="none" xmlns="http://www.w3.org/2000/svg">
<path d="M24.7875 28.125H5.2125C4.08108 28.1226 2.99657 27.6727 2.19565 26.8735C1.39474 26.0743 0.942449 24.9908 0.9375 23.8594V10.3125H29.0625V23.8594C29.0576 24.9908 28.6053 26.0743 27.8043 26.8735C27.0034 27.6727 25.9189 28.1226 24.7875 28.125ZM2.8125 12.1875V23.8594C2.81743 24.4935 3.07217 25.1002 3.52145 25.5477C3.97074 25.9952 4.57835 26.2476 5.2125 26.25H24.7875C25.4216 26.2476 26.0293 25.9952 26.4785 25.5477C26.9278 25.1002 27.1826 24.4935 27.1875 23.8594V12.1875H2.8125Z" fill="#86F2E7"/>
<path d="M29.0625 12.1875H0.93751V8.04375C0.936278 7.48112 1.04588 6.92375 1.26005 6.40348C1.47422 5.8832 1.78877 5.4102 2.18574 5.01149C2.58271 4.61278 3.05433 4.29616 3.57366 4.07971C4.093 3.86327 4.64988 3.75123 5.21251 3.75H24.7875C25.3501 3.75123 25.907 3.86327 26.4264 4.07971C26.9457 4.29616 27.4173 4.61278 27.8143 5.01149C28.2113 5.4102 28.5258 5.8832 28.74 6.40348C28.9542 6.92375 29.0637 7.48112 29.0625 8.04375V12.1875ZM2.81251 10.3125H27.1875V8.04375C27.1887 7.72735 27.1276 7.4138 27.0077 7.12101C26.8878 6.82821 26.7113 6.56192 26.4885 6.33731C26.2656 6.11271 26.0007 5.9342 25.7088 5.81199C25.417 5.68977 25.1039 5.62623 24.7875 5.625H5.21251C4.89611 5.62623 4.58304 5.68977 4.29119 5.81199C3.99935 5.9342 3.73443 6.11271 3.51157 6.33731C3.2887 6.56192 3.11227 6.82821 2.99232 7.12101C2.87238 7.4138 2.81128 7.72735 2.81251 8.04375V10.3125Z" fill="#86F2E7"/>
<path d="M8.38123 2.79376C8.38123 2.276 7.96149 1.85626 7.44373 1.85626C6.92596 1.85626 6.50623 2.276 6.50623 2.79376V6.60001C6.50623 7.11778 6.92596 7.53751 7.44373 7.53751C7.96149 7.53751 8.38123 7.11778 8.38123 6.60001V2.79376Z" fill="#86F2E7"/>
<path d="M23.4938 2.79376C23.4938 2.276 23.074 1.85626 22.5563 1.85626C22.0385 1.85626 21.6188 2.276 21.6188 2.79376V6.60001C21.6188 7.11778 22.0385 7.53751 22.5563 7.53751C23.074 7.53751 23.4938 7.11778 23.4938 6.60001V2.79376Z" fill="#86F2E7"/>
<path d="M15.9375 2.79376C15.9375 2.276 15.5178 1.85626 15 1.85626C14.4822 1.85626 14.0625 2.276 14.0625 2.79376V6.60001C14.0625 7.11778 14.4822 7.53751 15 7.53751C15.5178 7.53751 15.9375 7.11778 15.9375 6.60001V2.79376Z" fill="#86F2E7"/>
<path d="M2.16565 11.25V26.4844H27.6563V11.25H2.16565ZM10.3125 20.7C10.1271 20.7 9.94585 20.645 9.79168 20.542C9.63751 20.439 9.51735 20.2926 9.44639 20.1213C9.37543 19.95 9.35687 19.7615 9.39304 19.5796C9.42921 19.3978 9.5185 19.2307 9.64961 19.0996C9.78073 18.9685 9.94777 18.8792 10.1296 18.843C10.3115 18.8069 10.5 18.8254 10.6713 18.8964C10.8426 18.9674 10.989 19.0875 11.092 19.2417C11.195 19.3959 11.25 19.5771 11.25 19.7625C11.25 20.0112 11.1513 20.2496 10.9754 20.4254C10.7996 20.6013 10.5612 20.7 10.3125 20.7ZM15 20.7C14.8146 20.7 14.6334 20.645 14.4792 20.542C14.325 20.439 14.2048 20.2926 14.1339 20.1213C14.0629 19.95 14.0444 19.7615 14.0805 19.5796C14.1167 19.3978 14.206 19.2307 14.3371 19.0996C14.4682 18.9685 14.6353 18.8792 14.8171 18.843C14.999 18.8069 15.1875 18.8254 15.3588 18.8964C15.5301 18.9674 15.6765 19.0875 15.7795 19.2417C15.8825 19.3959 15.9375 19.5771 15.9375 19.7625C15.9375 20.0112 15.8388 20.2496 15.6629 20.4254C15.4871 20.6013 15.2487 20.7 15 20.7ZM19.6875 20.7C19.5021 20.7 19.3209 20.645 19.1667 20.542C19.0125 20.439 18.8924 20.2926 18.8214 20.1213C18.7504 19.95 18.7319 19.7615 18.768 19.5796C18.8042 19.3978 18.8935 19.2307 19.0246 19.0996C19.1557 18.9685 19.3228 18.8792 19.5046 18.843C19.6865 18.8069 19.875 18.8254 20.0463 18.8964C20.2176 18.9674 20.364 19.0875 20.467 19.2417C20.57 19.3959 20.625 19.5771 20.625 19.7625C20.625 20.0112 20.5263 20.2496 20.3504 20.4254C20.1746 20.6013 19.9362 20.7 19.6875 20.7Z" fill="#86F2E7"/>
</svg>
