<svg width="30" height="30" viewBox="0 0 30 30" fill="none" xmlns="http://www.w3.org/2000/svg">
<path d="M6.60021 28.8462H23.3885C26.4001 28.8462 28.8461 26.4 28.8461 23.4V6.59996C28.8461 3.59999 26.4001 1.15384 23.3885 1.15384H19.65V8.23833C19.65 8.43468 19.5348 8.63074 19.3615 8.73455C19.1886 8.83836 18.981 8.83836 18.7962 8.7461L15.3577 6.91152C15.0115 6.71532 14.5732 6.72687 14.227 6.93462L11.1925 8.73455C10.7097 8.97593 10.3271 8.61315 10.3271 8.23833V1.15384H6.60021C3.58855 1.15384 1.15381 3.59999 1.15381 6.59996V23.4C1.15381 26.4 3.58855 28.8462 6.60021 28.8462ZM7.3501 15.7038V15.6923C7.42743 15.5764 9.50745 13.5222 9.62314 13.4077C10.073 12.9577 10.8001 12.9577 11.25 13.4077C11.7001 13.8577 11.7001 14.5845 11.25 15.0346L11.1001 15.1845H18.2077C20.7579 15.1845 22.8346 17.2499 22.8346 19.7999C22.8346 22.35 20.7579 24.4268 18.2077 24.4268H13.7887C13.154 24.4268 12.6348 23.9077 12.6348 23.273C12.6348 22.6385 13.154 22.1191 13.7887 22.1191H18.2077C19.4886 22.1191 20.5269 21.0808 20.5269 19.7999C20.5269 18.5308 19.4886 17.4922 18.2077 17.4922H11.0886L11.25 17.6539C11.7001 18.1038 11.7001 18.8423 11.25 19.2923C10.798 19.7442 10.0624 19.7315 9.62314 19.2923C9.50771 19.1762 7.36412 17.0211 7.49996 17.1577C7.04333 16.5869 7.09418 16.2146 7.3501 15.7038Z" fill="#86F2E7"/>
</svg>
