<svg width="30" height="30" viewBox="0 0 30 30" fill="none" xmlns="http://www.w3.org/2000/svg">
<path d="M22.1475 3.81124C20.8507 2.74945 19.3344 1.98868 17.7081 1.58381C16.0817 1.17895 14.3857 1.14007 12.7425 1.46999C10.6296 1.90317 8.68584 2.93456 7.14264 4.4413C5.59945 5.94805 4.52189 7.86663 4.03834 9.96852C3.55479 12.0704 3.68563 14.267 4.41526 16.2966C5.1449 18.3262 6.44258 20.1033 8.15373 21.4163C10.1074 22.8461 11.7708 24.6351 13.055 26.6875L13.93 28.1425C14.0411 28.3273 14.1982 28.4802 14.3859 28.5864C14.5736 28.6926 14.7856 28.7484 15.0012 28.7484C15.2169 28.7484 15.4289 28.6926 15.6166 28.5864C15.8043 28.4802 15.9613 28.3273 16.0725 28.1425L16.9112 26.745C18.0295 24.7792 19.5543 23.0746 21.3837 21.745C22.8182 20.758 24.0037 19.4512 24.8468 17.9277C25.6898 16.4041 26.1672 14.7055 26.2414 12.9658C26.3156 11.2262 25.9845 9.49308 25.2742 7.90329C24.564 6.31349 23.494 4.9105 22.1487 3.80499L22.1475 3.81124ZM15 17.5C14.0111 17.5 13.0444 17.2068 12.2221 16.6573C11.3999 16.1079 10.759 15.327 10.3806 14.4134C10.0021 13.4998 9.90312 12.4945 10.096 11.5245C10.289 10.5546 10.7652 9.66372 11.4644 8.96446C12.1637 8.2652 13.0546 7.789 14.0245 7.59607C14.9944 7.40314 15.9998 7.50216 16.9134 7.8806C17.827 8.25904 18.6079 8.8999 19.1573 9.72215C19.7067 10.5444 20 11.5111 20 12.5C20 13.8261 19.4732 15.0979 18.5355 16.0355C17.5978 16.9732 16.3261 17.5 15 17.5Z" fill="#86F2E7"/>
</svg>
