<svg width="30" height="30" viewBox="0 0 30 30" fill="none" xmlns="http://www.w3.org/2000/svg">
<path d="M26.4844 2.69592V25.5475C26.4844 25.9026 26.2705 26.2231 25.9418 26.3596C25.5996 26.4996 25.227 26.4117 24.9838 26.1692C24.9193 26.1041 18.5953 19.994 12.3047 19.449V8.79494C18.6059 8.2506 24.9193 2.13928 24.9838 2.07424C25.2357 1.82287 25.6131 1.74553 25.9418 1.88381C26.2705 2.01974 26.4844 2.34084 26.4844 2.69592Z" fill="#86F2E7"/>
<path d="M30 14.1217C30 15.4207 29.2922 16.5569 28.2422 17.1656V11.0778C29.2922 11.6865 30 12.8227 30 14.1217Z" fill="#86F2E7"/>
<path d="M13.6436 24.3081C13.8093 24.0815 13.8565 23.7896 13.7707 23.5218C13.5246 22.7511 13.3559 22.0239 13.2647 21.3566C12.67 21.2378 12.074 21.1606 11.4827 21.1566C11.5353 21.7133 11.6223 22.2924 11.7726 22.9108H10.468C10.2868 22.352 10.1162 21.7673 9.98394 21.153H5.27341C5.03546 21.153 4.81046 21.1058 4.57849 21.0827C5.02017 24.5683 6.15543 27.4819 6.21496 27.6315C6.34884 27.9654 6.67158 28.1843 7.03123 28.1843H11.4258C12.1088 28.1843 12.5302 27.4373 12.1793 26.8539C12.1682 26.8351 11.6689 25.9683 11.1205 24.6686H12.9338C13.2144 24.6686 13.4779 24.5347 13.6436 24.3081Z" fill="#86F2E7"/>
<path d="M5.27344 19.3951H10.5469V8.84827H5.27344C2.36549 8.84827 0 11.2138 0 14.1217C0 17.0297 2.36549 19.3951 5.27344 19.3951Z" fill="#86F2E7"/>
</svg>
