<svg width="30" height="30" viewBox="0 0 30 30" fill="none" xmlns="http://www.w3.org/2000/svg">
<path d="M28.9286 11.7857C29.5203 11.7857 30 11.306 30 10.7143V3.21428C30 2.62254 29.5203 2.14283 28.9286 2.14283H27.3214V1.60711C27.3215 0.719531 26.6019 0 25.7143 0H22.5C21.6124 0 20.8928 0.719531 20.8928 1.60717V2.14289H19.2857C18.6939 2.14289 18.2142 2.6226 18.2142 3.21434V8.98611C19.1558 9.72111 19.8935 10.6849 20.3571 11.7858H28.9286V11.7857ZM21.9643 1.60717C21.9643 1.31133 22.2041 1.07145 22.5 1.07145H25.7143C26.0101 1.07145 26.25 1.31127 26.25 1.60717V2.14289H21.9643V1.60717ZM24.1072 3.21428C26.1782 3.21428 27.8572 4.89322 27.8572 6.96428C27.8572 9.03533 26.1782 10.7143 24.1072 10.7143C22.0361 10.7143 20.3572 9.03533 20.3572 6.96428C20.3595 4.89422 22.0371 3.21662 24.1072 3.21428Z" fill="#86F2E7"/>
<path d="M11.4107 19.7909C11.5708 19.8102 11.7317 19.8204 11.8929 19.8214H14.6952C15.0861 19.8224 15.4736 19.895 15.8384 20.0357C18.5052 19.122 20.1514 16.4475 19.7659 13.6551C19.3803 10.8626 17.0711 8.73427 14.2565 8.57729C11.442 8.42032 8.91036 10.2787 8.21673 13.011C7.52309 15.7432 8.86167 18.5841 11.4103 19.7887L11.4107 19.7909ZM13.9286 15C12.8509 15.0013 11.9405 14.2005 11.8044 13.1314C11.6684 12.0623 12.3491 11.059 13.3928 10.7903V10.7143C13.3928 10.4184 13.6327 10.1785 13.9286 10.1785C14.2245 10.1785 14.4643 10.4184 14.4643 10.7143V10.7903C15.4075 11.0338 16.0678 11.883 16.0715 12.8571C16.0715 13.1529 15.8316 13.3928 15.5357 13.3928C15.2399 13.3928 15 13.153 15 12.8571C15 12.2654 14.5203 11.7857 13.9286 11.7857C13.3368 11.7857 12.8571 12.2654 12.8571 12.8571C12.8571 13.4488 13.3368 13.9285 13.9286 13.9285C15.0063 13.9272 15.9167 14.7281 16.0527 15.7972C16.1888 16.8663 15.508 17.8696 14.4643 18.1382V18.2143C14.4643 18.5101 14.2245 18.75 13.9286 18.75C13.6327 18.75 13.3928 18.5102 13.3928 18.2143V18.1382C12.4496 17.8947 11.7894 17.0456 11.7857 16.0714C11.7857 15.7756 12.0255 15.5357 12.3214 15.5357C12.6173 15.5357 12.8571 15.7755 12.8571 16.0714C12.8571 16.6632 13.3368 17.1429 13.9286 17.1429C14.5203 17.1429 15 16.6632 15 16.0714C15 15.4797 14.5203 15 13.9286 15Z" fill="#86F2E7"/>
<path d="M24.1071 9.64281C25.5865 9.64281 26.7857 8.44358 26.7857 6.96426C26.7857 5.48494 25.5865 4.28571 24.1071 4.28571C22.6278 4.28571 21.4286 5.48494 21.4286 6.96426C21.4303 8.44287 22.6285 9.64106 24.1071 9.64281ZM23.0357 6.42854H23.5714V5.89281C23.5714 5.59698 23.8112 5.35709 24.1071 5.35709C24.403 5.35709 24.6429 5.59692 24.6429 5.89281V6.42854H25.1786C25.4744 6.42854 25.7143 6.66836 25.7143 6.96426C25.7143 7.26016 25.4744 7.49998 25.1785 7.49998H24.6428V8.03571C24.6428 8.33155 24.403 8.57143 24.1071 8.57143C23.8112 8.57143 23.5714 8.3316 23.5714 8.03571V7.49998H23.0356C22.7398 7.49998 22.4999 7.26016 22.4999 6.96426C22.4999 6.66836 22.7398 6.42854 23.0357 6.42854Z" fill="#86F2E7"/>
<path d="M0.535723 17.6785H3.21428C3.51012 17.6785 3.75 17.9184 3.75 18.2143V29.4642C3.75 29.7601 3.51018 30 3.21428 30H0.535723C0.239824 30 0 29.7601 0 29.4642V18.2143C0 17.9184 0.239824 17.6785 0.535723 17.6785Z" fill="#86F2E7"/>
<path d="M29.7857 21.4923C29.5394 21.1939 29.1354 21.0772 28.7679 21.1982L18.8572 24.503C18.5829 24.5961 18.2951 24.6434 18.0054 24.6428H13.2434C12.3972 24.6432 11.5699 24.8935 10.8654 25.3623L10.4776 25.6237C10.2317 25.7889 9.89856 25.7234 9.7335 25.4775C9.56839 25.2316 9.63389 24.8985 9.87975 24.7334L10.2713 24.4709C11.1518 23.8849 12.1858 23.572 13.2435 23.5714H16.3613C16.7362 23.1069 16.8035 22.4655 16.5333 21.9332C16.1448 21.2893 15.4484 20.8948 14.6963 20.8929H11.8929C10.6612 20.8914 9.46631 20.4723 8.50344 19.7041C7.73147 19.0879 6.77346 18.7516 5.78575 18.75H4.82147V29.4643H17.8393C18.4287 29.4646 19.0068 29.3026 19.5102 28.9961L29.5495 22.8836C29.7748 22.7483 29.9322 22.5238 29.9823 22.2658C30.0325 22.0078 29.9708 21.7407 29.8125 21.5309C29.804 21.518 29.7948 21.5057 29.7857 21.4923Z" fill="#86F2E7"/>
<path d="M7.3093 11.7455C7.3693 11.7724 7.43428 11.7861 7.50002 11.7857C8.19412 10.1343 9.49449 8.81158 11.1338 8.0893C11.5841 6.88408 11.8052 5.60539 11.7857 4.31896V1.88574C11.784 1.60367 11.5656 1.37041 11.2843 1.35002C10.0479 1.29236 8.8485 0.909861 7.80699 0.241072C7.61616 0.106248 7.36063 0.107947 7.17166 0.245349C6.13766 0.914256 4.94352 1.29435 3.71311 1.34627C3.43116 1.3659 3.2119 1.59933 3.21008 1.88199L3.21436 4.31896C3.2143 6.88285 3.92469 10.2525 7.3093 11.7455ZM4.97844 6.04982C5.18762 5.8407 5.52676 5.8407 5.73594 6.04982L6.37075 6.68463L9.2143 2.89285C9.32914 2.73974 9.51693 2.65953 9.70695 2.68238C9.89697 2.70529 10.0603 2.82781 10.1355 3.00383C10.2107 3.17984 10.1863 3.38258 10.0714 3.53568L6.85713 7.82141C6.7642 7.94615 6.6217 8.02432 6.4666 8.03568H6.42858C6.28649 8.03563 6.15026 7.9792 6.04983 7.87871L4.97838 6.80727C4.76926 6.59814 4.76926 6.25906 4.97844 6.04982Z" fill="#86F2E7"/>
</svg>
