<svg width="30" height="30" viewBox="0 0 30 30" fill="none" xmlns="http://www.w3.org/2000/svg">
<path d="M26.875 0H18.9462C17.4437 0 16.03 0.585 14.9675 1.64748L1.06623 15.55C0.38877 16.2275 0 17.165 0 18.1275C0 19.085 0.38877 20.0225 1.06623 20.7L9.30123 28.935C9.97752 29.6112 10.915 30 11.8775 30C12.835 30 13.7725 29.6112 14.45 28.9338L28.3525 15.0313C29.415 13.97 30 12.5562 30 11.0538V3.12498C30 1.40127 28.5987 0 26.875 0ZM23.125 10C21.4012 10 20 8.59875 20 6.87504C20 5.15127 21.4013 3.75006 23.125 3.75006C24.8487 3.75006 26.25 5.15127 26.25 6.87498C26.25 8.59875 24.8487 10 23.125 10Z" fill="#86F2E7"/>
</svg>
