<svg width="30" height="30" viewBox="0 0 30 30" fill="none" xmlns="http://www.w3.org/2000/svg">
<path d="M4.45312 26.4844H25.5469C26.0327 26.4844 26.4258 26.0913 26.4258 25.6055C26.4258 22.2212 25.3898 20.926 24.4757 19.7827C23.6354 18.733 22.9102 17.7094 22.9102 14.9414V11.4258C22.9102 7.86973 20.5364 4.88977 17.3014 3.89713C17.5084 3.5209 17.6367 3.09557 17.6367 2.63672C17.6367 1.18277 16.4539 0 15 0C13.5461 0 12.3633 1.18277 12.3633 2.63672C12.3633 3.09557 12.4916 3.5209 12.6986 3.89713C9.46359 4.88977 7.08984 7.86973 7.08984 11.4258V14.9414C7.08984 17.7094 6.36457 18.733 5.52428 19.7827C4.61021 20.926 3.57422 22.2212 3.57422 25.6055C3.57422 26.0913 3.96732 26.4844 4.45312 26.4844ZM14.1211 2.63672C14.1211 2.1518 14.5151 1.75781 15 1.75781C15.4849 1.75781 15.8789 2.1518 15.8789 2.63672C15.8789 3.12164 15.4849 3.51562 15 3.51562C14.5151 3.51562 14.1211 3.12164 14.1211 2.63672Z" fill="#86F2E7"/>
<path d="M5.33203 11.4257C5.33203 7.99169 7.18512 4.78415 10.1677 3.0547C10.5874 2.81095 10.7307 2.27364 10.487 1.85306C10.2449 1.43423 9.70852 1.29173 9.28535 1.53378C5.76293 3.57653 3.57422 7.36684 3.57422 11.4257C3.57422 11.9115 3.96732 12.3047 4.45312 12.3047C4.93893 12.3047 5.33203 11.9115 5.33203 11.4257Z" fill="#86F2E7"/>
<path d="M24.668 11.4258C24.668 11.9116 25.0611 12.3047 25.5469 12.3047C26.0327 12.3047 26.4258 11.9116 26.4258 11.4258C26.4258 7.3669 24.2371 3.57659 20.7146 1.53384C20.2915 1.28921 19.7567 1.43341 19.513 1.85311C19.2692 2.2737 19.4126 2.811 19.8323 3.05475C22.8149 4.78421 24.668 7.99175 24.668 11.4258Z" fill="#86F2E7"/>
<path d="M15.0001 30C16.298 30 17.4191 29.2886 18.0281 28.2422H11.972C12.581 29.2886 13.7021 30 15.0001 30Z" fill="#86F2E7"/>
</svg>
