<svg width="51" height="51" viewBox="0 0 51 51" fill="none" xmlns="http://www.w3.org/2000/svg">
<circle cx="25.5" cy="25.5" r="25.5" fill="#61CC99"/>
<g clip-path="url(#clip0_21_387)">
<path d="M28.4569 14.5203V18.5592H32.5051L28.4569 14.5203Z" fill="white"/>
<path d="M18.434 21.9746C18.434 21.4628 18.8528 21.044 19.3646 21.044H28.6709C29.1083 21.044 29.4713 21.3418 29.5643 21.742H33.0449V20.4205H27.5262C27.0051 20.4205 26.5956 20.0017 26.5956 19.4898V13.9712H17.764C16.2377 13.9712 15 15.2089 15 16.7352V32.1836C15 33.7098 16.2377 34.9476 17.764 34.9476H20.956V30.6015H19.3646C18.8528 30.6015 18.434 30.1921 18.434 29.6709C18.434 29.1591 18.8528 28.7403 19.3646 28.7403H20.956V26.758H19.3646C18.8528 26.758 18.434 26.3393 18.434 25.8274C18.434 25.3156 18.8528 24.8968 19.3646 24.8968H21.2259C21.4958 24.1151 21.9704 23.4264 22.5753 22.9052H19.3646C18.8528 22.9052 18.434 22.4865 18.434 21.9746Z" fill="white"/>
<path d="M34.143 23.6032H25.665C24.0922 23.6032 22.8173 24.8782 22.8173 26.4509V37.1717C22.8173 38.7445 24.0922 40.0288 25.665 40.0288H34.143C35.7158 40.0288 37 38.7445 37 37.1717V26.4509C37 24.8782 35.7158 23.6032 34.143 23.6032ZM25.8511 27.6142C25.8511 27.1024 26.2606 26.6836 26.7817 26.6836H33.0356C33.5474 26.6836 33.9662 27.1024 33.9662 27.6142V30.8249C33.9662 31.346 33.5474 31.7555 33.0356 31.7555H26.7817C26.2606 31.7555 25.8511 31.346 25.8511 30.8249V27.6142ZM26.7817 37.2648C26.2513 37.2648 25.8511 36.846 25.8511 36.3342C25.8511 35.813 26.2513 35.4036 26.7817 35.4036C27.2936 35.4036 27.7124 35.813 27.7124 36.3342C27.7124 36.846 27.2936 37.2648 26.7817 37.2648ZM26.7817 34.5195C26.2513 34.5195 25.8511 34.1007 25.8511 33.5888C25.8511 33.0677 26.2513 32.6582 26.7817 32.6582C27.2936 32.6582 27.7124 33.0677 27.7124 33.5888C27.7124 34.1007 27.2936 34.5195 26.7817 34.5195ZM29.9086 37.2648C29.3875 37.2648 28.978 36.846 28.978 36.3342C28.978 35.813 29.3875 35.4036 29.9086 35.4036C30.4205 35.4036 30.8393 35.813 30.8393 36.3342C30.8393 36.846 30.4205 37.2648 29.9086 37.2648ZM29.9086 34.5195C29.3875 34.5195 28.978 34.1007 28.978 33.5888C28.978 33.0677 29.3875 32.6582 29.9086 32.6582C30.4205 32.6582 30.8393 33.0677 30.8393 33.5888C30.8393 34.1007 30.4205 34.5195 29.9086 34.5195ZM33.0449 37.2648C32.5237 37.2648 32.1142 36.846 32.1142 36.3342C32.1142 35.813 32.5237 35.4036 33.0449 35.4036C33.5567 35.4036 33.9755 35.813 33.9755 36.3342C33.9755 36.846 33.5567 37.2648 33.0449 37.2648ZM33.0449 34.5195C32.5237 34.5195 32.1142 34.1007 32.1142 33.5888C32.1142 33.0677 32.5237 32.6582 33.0449 32.6582C33.5567 32.6582 33.9755 33.0677 33.9755 33.5888C33.9755 34.1007 33.5567 34.5195 33.0449 34.5195Z" fill="white"/>
</g>
<defs>
<clipPath id="clip0_21_387">
<rect width="26" height="26" fill="white" transform="translate(13 14)"/>
</clipPath>
</defs>
</svg>
