<svg width="152" height="152" viewBox="0 0 152 152" fill="none" xmlns="http://www.w3.org/2000/svg">
<rect width="152" height="152" rx="16.3793" fill="#1F2431"/>
<path d="M40.5559 88.3685H49.4638V133.554H42.686L23.321 105.926V133.554H14.4131V88.3685H21.1908L40.5559 115.931V88.3685Z" fill="white"/>
<path d="M53.5924 133.554V126.905L69.0199 111.026C72.4626 107.411 74.1839 104.398 74.1839 101.989C74.1839 100.224 73.6245 98.8041 72.5056 97.7283C71.4298 96.6525 70.0312 96.1146 68.3098 96.1146C64.9102 96.1146 62.3928 97.8789 60.7575 101.408L53.2697 97.0183C54.6898 93.9199 56.7339 91.553 59.4019 89.9177C62.07 88.2825 64.9963 87.4648 68.1808 87.4648C72.2689 87.4648 75.7761 88.7558 78.7024 91.3378C81.6287 93.8768 83.0918 97.3195 83.0918 101.666C83.0918 106.357 80.6174 111.176 75.6686 116.125L66.8252 124.968H83.8019V133.554H53.5924Z" fill="white"/>
<path d="M121.858 117.61V125.872H117.016V133.554H108.044V125.872H86.6779V117.61L101.718 88.3685H111.271L96.2958 117.61H108.044V106.894H117.016V117.61H121.858Z" fill="white"/>
<path d="M136.155 132.779C135.079 133.855 133.788 134.392 132.282 134.392C130.776 134.392 129.485 133.855 128.409 132.779C127.333 131.703 126.795 130.412 126.795 128.906C126.795 127.4 127.333 126.109 128.409 125.033C129.485 123.957 130.776 123.419 132.282 123.419C133.788 123.419 135.079 123.957 136.155 125.033C137.231 126.109 137.768 127.4 137.768 128.906C137.768 130.412 137.231 131.703 136.155 132.779Z" fill="#86F2E7"/>
</svg>
